# AST/ASF file generated using VICON BodyLanguage
# -----------------------------------------------
:version 1.10
:name VICON
:units
  mass 1.0
  length 0.45
  angle deg
:documentation
   .ast/.asf automatically generated from VICON data using
   VICON BodyBuilder and BodyLanguage model FoxedUp or BRILLIANT.MOD
:root
   order TX TY TZ RX RY RZ
   axis XYZ
   position 0 0 0  
   orientation 0 0 0 
:bonedata
  begin
     id 1 
     name lhipjoint
     direction 0.627457 -0.725269 0.283342 
     length 2.53237 
     axis 0 0 0  XYZ
  end
  begin
     id 2 
     name lfemur
     direction 0.34202 -0.939693 0  
     length 7.32496  
     axis 0 0 20  XYZ
    dof rx ry rz
    limits (-160.0 20.0)
           (-70.0 70.0)
           (-60.0 70.0)
  end
  begin
     id 3 
     name ltibia
     direction 0.34202 -0.939693 0   
     length 7.69674   
     axis 0 0 20   XYZ
    dof rx
    limits (-10.0 170.0)
  end
  begin
     id 4 
     name lfoot
     direction 0.127289 -0.349722 0.928166   
     length 1.8612   
     axis -90 7.62852e-016 20   XYZ
    dof rx rz
    limits (-45.0 90.0)
           (-70.0 20.0)
  end
  begin
     id 5 
     name ltoes
     direction 1.53561e-011 -4.21864e-011 1   
     length 0.925608   
     axis -90 7.62852e-016 20   XYZ
    dof rx
    limits (-90.0 20.0)
  end
  begin
     id 6 
     name rhipjoint
     direction -0.609094 -0.738725 0.288599   
     length 2.48624  
     axis 0 0 0  XYZ 
  end
  begin
     id 7 
     name rfemur
     direction -0.34202 -0.939693 0   
     length 7.44259   
     axis 0 0 -20   XYZ
    dof rx ry rz
    limits (-160.0 20.0)
           (-70.0 70.0)
           (-70.0 60.0)
  end
  begin
     id 8 
     name rtibia
     direction -0.34202 -0.939693 0   
     length 7.7781   
     axis 0 0 -20   XYZ
    dof rx
    limits (-10.0 170.0)
 end
 begin
     id 9 
     name rfoot
     direction -0.107015 -0.294021 0.949789   
     length 2.14741  
     axis -90 -7.62852e-016 -20   XYZ
    dof rx rz
    limits (-45.0 90.0)
           (-20.0 70.0)
  end
  begin
     id 10 
     name rtoes
     direction -1.53497e-011 -4.21924e-011 1   
     length 1.0706   
     axis -90 -7.62852e-016 -20   XYZ
    dof rx
    limits (-90.0 20.0)
  end
  begin
     id 11 
     name lowerback
     direction -0.0142066 0.998112 -0.0597545   
     length 1.86627   
     axis 0 0 0   XYZ
    dof rx ry rz
    limits (-20.0 45.0)
           (-30.0 30.0)
           (-30.0 30.0)
  end
  begin
     id 12 
     name upperback
     direction 0.00547294 0.999744 0.0219437   
     length 1.86272   
     axis 0 0 0   XYZ
    dof rx ry rz
    limits (-20.0 45.0)
           (-30.0 30.0)
           (-30.0 30.0)
  end
  begin
     id 13 
     name thorax
     direction 0.0116162 0.998704 0.0495538   
     length 1.8703   
     axis 0 0 0   XYZ
    dof rx ry rz
    limits (-20.0 45.0)
           (-30.0 30.0)
           (-30.0 30.0)
  end
  begin
     id 14 
     name lowerneck
     direction -0.0106574 0.998739 0.0490586   
     length 1.8074   
     axis 0 0 0   XYZ
    dof rx ry rz
    limits (-20.0 45.0)
           (-30.0 30.0)
           (-30.0 30.0)
  end
  begin
     id 15 
     name upperneck
     direction 0.030527 0.976587 -0.212944   
     length 1.80681   
     axis 0 0 0   XYZ
    dof rx ry rz
    limits (-20.0 45.0)
           (-30.0 30.0)
           (-30.0 30.0)
  end
  begin
     id 16
     name head
     direction 0.00869225 0.997035 -0.0764531  
     length 1.8313  
     axis 0 0 0   XYZ
    dof rx ry rz
    limits (-20.0 45.0)
           (-30.0 30.0)
           (-30.0 30.0)
  end
  begin
     id 17 
     name lclavicle
     direction 0.915958 0.399447 0.0382386  
     length 3.78965  
     axis 0 0 0   XYZ
    dof ry rz
    limits (-20.0 10.0)
           (0.0 20.0)
  end
  begin
     id 18 
     name lhumerus
     direction 1 -4.48967e-011 3.19303e-027   
     length 4.78095   
     axis -180 -30 -90   XYZ
    dof rx ry rz
    limits (-60.0 90.0)
           (-90.0 90.0)
           (-90.0 90.0)
  end
  begin
     id 19
     name lradius
     direction 1 -4.48967e-011 -3.77974e-027   
     length 3.58615   
     axis -180 -30 -90   XYZ
    dof rx
    limits (-10.0 170.0)
  end
  begin
     id 20
     name lwrist
     direction 1 -4.48927e-011 1.2807e-027   
     length 1.79307   
     axis 1.91374e-015 90 90   XYZ
    dof ry
    limits (-180.0 0.0)
 end
  begin
     id 21 
     name lhand
     direction 1 -4.49036e-011 2.5614e-027   
     length 0.659812   
     axis -1.63439e-015 90 90   XYZ
    dof rx rz
    limits (-90.0 90.0)
           (-45.0 45.0)
  end
  begin
     id 22 
     name lfingers
     direction 1 -4.49052e-011 5.1228e-027   
     length 0.531957   
     axis -3.26879e-015 90 90   XYZ
    dof rx
    limits (0.0 90.0)
  end
  begin
     id 23
     name lthumb
     direction 0.707107 -6.35012e-011 0.707107   
     length 0.763787   
     axis -90 45 2.85299e-015   XYZ
    dof rx rz
    limits (-45.0 45.0)
           (-45.0 45.0)
  end
  begin
     id 24 
     name rclavicle
     direction -0.895351 0.435135 0.0948887   
     length 3.70497  
     axis 0 0 0   XYZ 
    dof ry rz
    limits (-10.0 20.0)
           (-20.0 0.0)
  end
  begin
     id 25 
     name rhumerus
     direction -1 -4.48971e-011 2.38946e-027  
     length 4.48913   
     axis -180 30 90   XYZ
    dof rx ry rz
    limits (-90.0 60.0)
           (-90.0 90.0)
           (-90.0 90.0)
  end
  begin
     id 26 
     name rradius
     direction -1 -4.4895e-011 4.38668e-027   
     length 3.7051   
     axis -180 30 90   XYZ
    dof rx
    limits (-10.0 170.0)
  end
  begin
     id 27 
     name rwrist
     direction -1 -4.49007e-011 1.2807e-027   
     length 1.85255   
     axis 1.91374e-015 -90 -90   XYZ
    dof ry
    limits (-180.0 0.0)
  end
  begin
     id 28
     name rhand
     direction -1 -4.48851e-011 2.5614e-027   
     length 0.449136   
     axis -1.63439e-015 -90 -90   XYZ
    dof rx rz
    limits (-90.0 90.0)
           (-45.0 45.0)
  end
  begin
     id 29
     name rfingers
     direction -1 -4.49128e-011 5.1228e-027   
     length 0.362105   
     axis -3.26879e-015 -90 -90   XYZ
    dof rx
    limits (0.0 90.0)
  end
  begin
     id 30
     name rthumb
     direction -0.707107 -6.34851e-011 0.707107   
     length 0.519912   
     axis -90 -45 -2.85299e-015   XYZ
    dof rx rz
    limits (-45.0 45.0)
           (-45.0 45.0)
  end
:hierarchy
  begin
    root lhipjoint rhipjoint lowerback
    lhipjoint lfemur
    lfemur ltibia
    ltibia lfoot
    lfoot ltoes
    rhipjoint rfemur
    rfemur rtibia
    rtibia rfoot
    rfoot rtoes
    lowerback upperback
    upperback thorax
    thorax lowerneck lclavicle rclavicle
    lowerneck upperneck
    upperneck head
    lclavicle lhumerus
    lhumerus lradius
    lradius lwrist
    lwrist lhand lthumb
    lhand lfingers
    rclavicle rhumerus
    rhumerus rradius
    rradius rwrist
    rwrist rhand rthumb
    rhand rfingers
  end

#!OML:ASF I:\Actors\actors\Patient Classification 2\Patient 1\Session 1\actor1.ASF
:FULLY-SPECIFIED
:DEGREES
1
root -0.674607 18.6765 5.81978 2.48048 -2.63717 0.238557
lowerback 2.31776 0.931419 -2.20844
upperback -3.3731 1.16099 0.432058
thorax -4.83794 0.665403 1.60874
lowerneck -15.0963 -2.90878 -1.68647
upperneck 20.3157 -4.54466 3.96516
head 8.9939 -1.83758 1.07689
rclavicle 5.54733e-015 1.32689e-014
rhumerus -50.9406 -0.483434 -86.0859
rradius 40.7421
rwrist 21.6796
rhand -4.31921 -37.749
rfingers 7.12502
rthumb 21.4474 -66.5818
lclavicle 5.54733e-015 1.32689e-014
lhumerus -42.5631 1.45794 87.1983
lradius 32.481
lwrist -13.416
lhand 0.510994 -24.857
lfingers 7.12502
lthumb 26.0797 3.37255
rfemur 0 0 0
rtibia 0
rfoot 0 0
rtoes 0
lfemur -3.22832 -8.02634 -14.7005
ltibia 19.1628
lfoot -23.1913 15.501
ltoes -55.1506
2
root -0.672077 18.6756 5.82525 2.44774 -2.61158 0.178074
lowerback 2.21022 0.935782 -2.12754
upperback -3.34943 1.17407 0.454757
thorax -4.75108 0.668367 1.58791
lowerneck -15.0881 -2.90454 -1.6771
upperneck 20.5297 -4.54164 3.92392
head 9.06468 -1.83691 1.06183
rclavicle -1.81298e-014 2.48481e-016
rhumerus -50.8954 -0.534548 -85.9542
rradius 40.7967
rwrist 21.7685
rhand -3.95775 -38.0726
rfingers 7.12502
rthumb 21.7945 -66.8655
lclavicle -1.81298e-014 2.48481e-016
lhumerus -42.4582 1.01701 87.5704
lradius 32.6605
lwrist -13.1996
lhand 0.742254 -24.8283
lfingers 7.12502
lthumb 26.3011 3.36838
rfemur 0 0 0
rtibia 0
rfoot 0 0
rtoes 0
lfemur -3.17659 -8.07421 -14.6504
ltibia 19.1717
lfoot -23.2109 15.5143
ltoes -55.1169
3
root -0.669439 18.6746 5.82978 2.42156 -2.55927 0.153215
lowerback 2.10315 0.917373 -2.08982
upperback -3.30903 1.15492 0.48385
thorax -4.6468 0.656699 1.60011
lowerneck -15.0585 -2.9008 -1.6492
upperneck 20.5954 -4.52137 3.81585
head 9.07767 -1.83647 1.02325
rclavicle -1.02623e-014 -7.85199e-015
rhumerus -50.8597 -0.430071 -85.9026
rradius 40.9544
rwrist 21.6872
rhand -3.90205 -38.0876
rfingers 7.12502
rthumb 21.848 -66.8743
lclavicle -1.02623e-014 -7.85199e-015
lhumerus -42.3758 0.64373 87.9465
lradius 32.9408
lwrist -12.9215
lhand 0.788917 -24.9483
lfingers 7.12502
lthumb 26.3458 3.24168
rfemur 0 0 0
rtibia 0
rfoot 0 0
rtoes 0
lfemur -3.13419 -8.07633 -14.627
ltibia 19.1524
lfoot -23.1644 15.4576
ltoes -55.1154
4
root -0.667292 18.6734 5.83412 2.34504 -2.50347 0.16628
lowerback 2.05246 0.888118 -2.0835
upperback -3.25256 1.11749 0.483478
thorax -4.55717 0.63646 1.59976
lowerneck -14.9209 -2.87878 -1.64867
upperneck 20.4694 -4.48341 3.80511
head 9.00735 -1.82356 1.02594
rclavicle -1.9397e-014 -2.88238e-015
rhumerus -50.8062 -0.28452 -85.9202
rradius 41.1369
rwrist 21.5122
rhand -4.05873 -37.8251
rfingers 7.12502
rthumb 21.6976 -66.6292
lclavicle -1.9397e-014 -2.88238e-015
lhumerus -42.3805 0.175516 88.33
lradius 33.3737
lwrist -12.3778
lhand 0.650134 -25.1417
lfingers 7.12502
lthumb 26.2129 3.06812
rfemur 0 0 0
rtibia 0
rfoot 0 0
rtoes 0
lfemur -3.03904 -8.00027 -14.6445
ltibia 19.1303
lfoot -23.1055 15.3375
ltoes -55.1172
5
root -0.665408 18.6718 5.83783 2.24471 -2.48681 0.233149
lowerback 2.0516 0.872459 -2.1282
upperback -3.19781 1.09369 0.45017
thorax -4.4988 0.62442 1.59232
lowerneck -14.7018 -2.85629 -1.69005
upperneck 20.203 -4.45667 3.91563
head 8.87856 -1.80923 1.07633
rclavicle 7.71222e-015 7.50412e-015
rhumerus -50.7795 -0.179629 -85.9583
rradius 41.3548
rwrist 21.2683
rhand -4.30271 -37.3971
rfingers 7.12502
rthumb 21.4633 -66.2281
lclavicle 7.71222e-015 7.50412e-015
lhumerus -42.4981 -0.458998 88.7565
lradius 33.9917
lwrist -11.5882
lhand 0.497124 -25.2454
lfingers 7.12502
lthumb 26.0664 2.98607
rfemur 0 0 0
rtibia 0
rfoot 0 0
rtoes 0
lfemur -2.9104 -8.04308 -14.7457
ltibia 19.1052
lfoot -23.1332 15.3436
ltoes -55.0802
6
root -0.662995 18.6711 5.83928 2.16583 -2.48776 0.313648
lowerback 2.07457 0.865735 -2.18732
upperback -3.15058 1.08068 0.416316
thorax -4.46265 0.618486 1.59133
lowerneck -14.5192 -2.84314 -1.69146
upperneck 19.9074 -4.44021 3.97992
head 8.74523 -1.80161 1.10249
rclavicle -1.07748e-014 4.96962e-016
rhumerus -50.7781 -0.0656238 -86.0141
rradius 41.6413
rwrist 20.8712
rhand -4.68197 -36.9388
rfingers 7.12502
rthumb 21.099 -65.8109
lclavicle -1.07748e-014 4.96962e-016
lhumerus -42.6433 -1.03814 89.1728
lradius 34.6447
lwrist -10.8102
lhand 0.324216 -25.1894
lfingers 7.12502
lthumb 25.9009 3.06633
rfemur 0 0 0
rtibia 0
rfoot 0 0
rtoes 0
lfemur -2.8048 -8.14599 -14.8715
ltibia 19.0733
lfoot -23.1411 15.4396
ltoes -55.0948
7
root -0.660413 18.671 5.84042 2.11222 -2.49194 0.359972
lowerback 2.08054 0.867545 -2.20554
upperback -3.09681 1.08157 0.3897
thorax -4.40989 0.617982 1.57436
lowerneck -14.4592 -2.8324 -1.61785
upperneck 19.6798 -4.42137 3.92959
head 8.65326 -1.79658 1.07625
rclavicle 1.39926e-015 -8.05078e-015
rhumerus -50.7639 0.0276268 -86.0776
rradius 41.9504
rwrist 20.4585
rhand -4.93506 -36.7013
rfingers 7.12502
rthumb 20.8558 -65.6003
lclavicle 1.39926e-015 -8.05078e-015
lhumerus -42.6926 -1.43453 89.5138
lradius 35.1692
lwrist -10.2449
lhand -0.419088 -25.4273
lfingers 7.12502
lthumb 25.1889 2.93053
rfemur 0 0 0
rtibia 0
rfoot 0 0
rtoes 0
lfemur -2.72385 -8.11604 -14.9417
ltibia 19.036
lfoot -23.0856 15.4579
ltoes -55.1323
8
root -0.658414 18.6701 5.8423 2.08399 -2.48644 0.406457
lowerback 2.05868 0.865255 -2.24166
upperback -3.05259 1.07681 0.362583
thorax -4.35141 0.615281 1.56758
lowerneck -14.5332 -2.82645 -1.54817
upperneck 19.6391 -4.41306 3.86561
head 8.64952 -1.79368 1.04323
rclavicle -6.0474e-015 -6.80837e-015
rhumerus -50.7463 0.1153 -86.1392
rradius 42.2213
rwrist 20.1536
rhand -5.1379 -36.5357
rfingers 7.12502
rthumb 20.6609 -65.456
lclavicle -6.0474e-015 -6.80837e-015
lhumerus -42.7305 -1.8216 89.8378
lradius 35.6472
lwrist -9.80695
lhand -1.54612 -25.8931
lfingers 7.12502
lthumb 24.1087 2.61219
rfemur 0 0 0
rtibia 0
rfoot 0 0
rtoes 0
lfemur -2.68454 -8.03057 -14.9928
ltibia 19.0118
lfoot -23.0448 15.3854
ltoes -55.1617
9
root -0.656564 18.6698 5.84435 2.07876 -2.46549 0.479725
lowerback 2.02383 0.857472 -2.31532
upperback -3.03228 1.06278 0.321053
thorax -4.31058 0.609321 1.56749
lowerneck -14.7298 -2.82064 -1.51063
upperneck 19.8375 -4.41162 3.81951
head 8.75094 -1.78941 1.01916
rclavicle -5.74767e-015 -2.06239e-015
rhumerus -50.7461 0.208785 -86.2206
rradius 42.4563
rwrist 19.8752
rhand -5.47416 -36.3553
rfingers 7.12502
rthumb 20.3378 -65.3104
lclavicle -5.74767e-015 -2.06239e-015
lhumerus -42.8339 -2.30871 90.1876
lradius 36.1292
lwrist -9.31666
lhand -1.91057 -25.8811
lfingers 7.12502
lthumb 23.7592 2.67005
rfemur 0 0 0
rtibia 0
rfoot 0 0
rtoes 0
lfemur -2.67732 -8.02053 -15.0758
ltibia 18.9979
lfoot -23.0261 15.346
ltoes -55.1489
10
root -0.654833 18.6705 5.84605 2.09539 -2.45966 0.526963
lowerback 1.96913 0.85321 -2.35524
upperback -3.02136 1.05503 0.271423
thorax -4.26763 0.605299 1.53995
lowerneck -14.9775 -2.79845 -1.43528
upperneck 20.1717 -4.39491 3.73957
head 8.90647 -1.77604 0.978501
rclavicle -2.35513e-015 3.91357e-015
rhumerus -50.7306 0.28512 -86.3404
rradius 42.6685
rwrist 19.5879
rhand -5.66305 -36.3853
rfingers 7.12502
rthumb 20.1562 -65.3597
lclavicle -2.35513e-015 3.91357e-015
lhumerus -42.9357 -2.76766 90.4882
lradius 36.5571
lwrist -8.79432
lhand -1.73394 -25.611
lfingers 7.12502
lthumb 23.9286 2.91808
rfemur 0 0 0
rtibia 0
rfoot 0 0
rtoes 0
lfemur -2.68469 -8.01932 -15.1352
ltibia 18.9859
lfoot -23.0085 15.3623
ltoes -55.1613
11
root -0.653867 18.671 5.84693 2.13424 -2.45213 0.524632
lowerback 1.88261 0.836775 -2.36391
upperback -3.01073 1.03427 0.251212
thorax -4.20627 0.594129 1.52647
lowerneck -15.1192 -2.76822 -1.36677
upperneck 20.4448 -4.3698 3.68843
head 9.02286 -1.75857 0.95105
rclavicle 1.32518e-014 6.63444e-015
rhumerus -50.6703 0.375733 -86.4439
rradius 42.8081
rwrist 19.396
rhand -5.64163 -36.4819
rfingers 7.12502
rthumb 20.1768 -65.4541
lclavicle 1.32518e-014 6.63444e-015
lhumerus -42.9583 -3.10046 90.7425
lradius 36.8412
lwrist -8.41111
lhand -1.92932 -25.4741
lfingers 7.12502
lthumb 23.7412 3.07935
rfemur 0 0 0
rtibia 0
rfoot 0 0
rtoes 0
lfemur -2.72731 -7.96756 -15.1256
ltibia 18.9861
lfoot -22.964 15.3578
ltoes -55.2713
12
root -0.653157 18.6713 5.84754 2.16665 -2.42921 0.510577
lowerback 1.78887 0.803418 -2.38677
upperback -2.99707 0.992003 0.268355
thorax -4.13773 0.573243 1.56078
lowerneck -15.0899 -2.76626 -1.44186
upperneck 20.5632 -4.37366 3.77301
head 9.0622 -1.75579 0.992197
rclavicle -1.34572e-014 7.03201e-015
rhumerus -50.5773 0.522966 -86.4969
rradius 42.8518
rwrist 19.3394
rhand -5.70196 -36.3896
rfingers 7.12502
rthumb 20.1188 -65.3678
lclavicle -1.34572e-014 7.03201e-015
lhumerus -42.9014 -3.35933 91.0202
lradius 36.9673
lwrist -8.16386
lhand -2.17465 -25.3794
lfingers 7.12502
lthumb 23.5059 3.20448
rfemur 0 0 0
rtibia 0
rfoot 0 0
rtoes 0
lfemur -2.76976 -7.97836 -15.1038
ltibia 18.9974
lfoot -22.9614 15.3956
ltoes -55.4017
13
root -0.652061 18.6719 5.84791 2.17507 -2.4002 0.520994
lowerback 1.69767 0.758672 -2.45561
upperback -2.9357 0.93377 0.298677
thorax -4.02141 0.544992 1.63551
lowerneck -15.116 -2.78732 -1.58139
upperneck 20.6158 -4.39486 3.8772
head 9.09156 -1.76423 1.04798
rclavicle -8.55939e-015 -4.77083e-015
rhumerus -50.3824 0.738434 -86.5483
rradius 42.8711
rwrist 19.2515
rhand -5.69413 -36.3979
rfingers 7.12502
rthumb 20.1264 -65.3754
lclavicle -8.55939e-015 -4.77083e-015
lhumerus -42.7232 -3.55053 91.2869
lradius 37.0038
lwrist -7.92588
lhand -1.60843 -25.3734
lfingers 7.12502
lthumb 24.0489 3.1398
rfemur 0 0 0
rtibia 0
rfoot 0 0
rtoes 0
lfemur -2.78495 -8.02893 -15.1154
ltibia 19.0059
lfoot -23.0131 15.429
ltoes -55.4905
14
root -0.651087 18.6726 5.84732 2.18428 -2.38691 0.528079
lowerback 1.61252 0.728671 -2.52427
upperback -2.83552 0.895447 0.323073
thorax -3.86897 0.525555 1.70298
lowerneck -15.2661 -2.79083 -1.63204
upperneck 20.6506 -4.3868 3.87409
head 9.13206 -1.76214 1.05458
rclavicle 4.41131e-015 -1.01629e-014
rhumerus -50.0573 0.885815 -86.5984
rradius 42.8479
rwrist 19.1506
rhand -5.58097 -36.5958
rfingers 7.12502
rthumb 20.2351 -65.5618
lclavicle 4.41131e-015 -1.01629e-014
lhumerus -42.4122 -3.62182 91.4655
lradius 36.9414
lwrist -7.80241
lhand -0.521771 -25.5021
lfingers 7.12502
lthumb 25.0905 2.86947
rfemur 0 0 0
rtibia 0
rfoot 0 0
rtoes 0
lfemur -2.80256 -8.03397 -15.1203
ltibia 19.0128
lfoot -23.0123 15.3951
ltoes -55.4336
15
root -0.650699 18.673 5.84626 2.20466 -2.41617 0.511026
lowerback 1.56394 0.734832 -2.53985
upperback -2.78976 0.90486 0.319974
thorax -3.79465 0.529274 1.70897
lowerneck -15.2411 -2.77731 -1.61985
upperneck 20.5856 -4.36281 3.85181
head 9.10339 -1.75364 1.04821
rclavicle -6.00392e-015 -1.34428e-014
rhumerus -49.8149 0.854556 -86.6361
rradius 42.7871
rwrist 19.1665
rhand -5.60024 -36.7189
rfingers 7.12502
rthumb 20.2166 -65.6868
lclavicle -6.00392e-015 -1.34428e-014
lhumerus -42.1672 -3.66175 91.5616
lradius 36.8154
lwrist -7.86001
lhand 0.0413425 -25.7184
lfingers 7.12502
lthumb 25.63 2.57665
rfemur 0 0 0
rtibia 0
rfoot 0 0
rtoes 0
lfemur -2.82525 -8.05435 -15.1052
ltibia 19.0211
lfoot -23.0107 15.4096
ltoes -55.3186
16
root -0.65046 18.6731 5.84574 2.21749 -2.45987 0.489274
lowerback 1.54704 0.755998 -2.53256
upperback -2.78576 0.933068 0.295595
thorax -3.78173 0.542523 1.67857
lowerneck -15.0556 -2.78873 -1.60823
upperneck 20.415 -4.37855 3.86707
head 9.01098 -1.7635 1.05164
rclavicle -3.36032e-015 3.23646e-015
rhumerus -49.7025 0.764405 -86.6797
rradius 42.7529
rwrist 19.1591
rhand -5.69021 -36.7502
rfingers 7.12502
rthumb 20.1301 -65.7273
lclavicle -3.36032e-015 3.23646e-015
lhumerus -42.0524 -3.77426 91.6502
lradius 36.7478
lwrist -7.91735
lhand 0.0698616 -25.8112
lfingers 7.12502
lthumb 25.6573 2.47991
rfemur 0 0 0
rtibia 0
rfoot 0 0
rtoes 0
lfemur -2.83397 -8.1109 -15.0923
ltibia 19.0337
lfoot -23.0827 15.4725
ltoes -55.2507
